<svg width="1024" height="1024" viewBox="0 0 1024 1024" fill="none" xmlns="http://www.w3.org/2000/svg">
  <defs>
    <radialGradient id="scoop" cx="0" cy="0" r="1" gradientUnits="userSpaceOnUse" gradientTransform="translate(470 345) rotate(48) scale(300 280)">
      <stop offset="0" stop-color="#FFF5C8"/>
      <stop offset="0.58" stop-color="#F2DB9A"/>
      <stop offset="1" stop-color="#D8BA78"/>
    </radialGradient>
    <linearGradient id="scoopShade" x1="366" y1="353" x2="640" y2="447" gradientUnits="userSpaceOnUse">
      <stop offset="0" stop-color="#FFF3BE" stop-opacity="0"/>
      <stop offset="1" stop-color="#B0863F" stop-opacity="0.5"/>
    </linearGradient>
    <linearGradient id="bowlOuter" x1="305" y1="446" x2="721" y2="732" gradientUnits="userSpaceOnUse">
      <stop offset="0" stop-color="#FFFFFF"/>
      <stop offset="0.48" stop-color="#F7F7F7"/>
      <stop offset="1" stop-color="#CACACA"/>
    </linearGradient>
    <linearGradient id="bowlInner" x1="418" y1="496" x2="589" y2="657" gradientUnits="userSpaceOnUse">
      <stop offset="0" stop-color="#F3F3F3"/>
      <stop offset="1" stop-color="#D1D1D1"/>
    </linearGradient>
    <linearGradient id="wafer" x1="0" y1="0" x2="1" y2="1">
      <stop offset="0" stop-color="#CEB58A"/>
      <stop offset="1" stop-color="#9D7A4E"/>
    </linearGradient>
    <filter id="shadow" x="182" y="235" width="660" height="578" filterUnits="userSpaceOnUse" color-interpolation-filters="sRGB">
      <feFlood flood-opacity="0" result="BackgroundImageFix"/>
      <feColorMatrix in="SourceAlpha" type="matrix" values="0 0 0 0 0 0 0 0 0 0 0 0 0 0 0 0 0 0 127 0" result="hardAlpha"/>
      <feOffset dy="18"/>
      <feGaussianBlur stdDeviation="22"/>
      <feColorMatrix type="matrix" values="0 0 0 0 0.03 0 0 0 0 0.03 0 0 0 0 0.03 0 0 0 0.18 0"/>
      <feBlend mode="normal" in2="BackgroundImageFix" result="effect1_dropShadow_1_1"/>
      <feBlend mode="normal" in="SourceGraphic" in2="effect1_dropShadow_1_1" result="shape"/>
    </filter>
  </defs>

  <ellipse cx="512" cy="742" rx="210" ry="42" fill="#0D0D0D" fill-opacity="0.16"/>

  <g filter="url(#shadow)">
    <rect x="655" y="239" width="48" height="245" rx="18" transform="rotate(25 655 239)" fill="url(#wafer)"/>
    <rect x="709" y="260" width="36" height="214" rx="16" transform="rotate(27 709 260)" fill="url(#wafer)"/>

    <circle cx="512" cy="363" r="207" fill="url(#scoop)"/>
    <path d="M357 354C395 292 465 255 544 258C609 260 671 294 706 351C653 333 609 342 564 369C499 407 432 400 357 354Z" fill="#FFF0B4" fill-opacity="0.46"/>
    <path d="M336 398C395 446 467 469 565 445C624 430 673 395 720 343C733 410 712 480 662 529C611 579 556 600 489 599C408 598 341 568 297 513C253 458 241 393 259 326C282 355 306 376 336 398Z" fill="url(#scoopShade)"/>
    <path d="M371 287C392 249 450 220 507 221C552 222 594 236 630 271C586 250 536 242 489 247C449 251 409 263 371 287Z" fill="#FFF7D8" fill-opacity="0.68"/>

    <path d="M272 486C272 449 302 419 339 419H685C722 419 752 449 752 486C752 521 737 556 710 584C673 623 618 650 512 650C406 650 351 623 314 584C287 556 272 521 272 486Z" fill="url(#bowlOuter)"/>
    <path d="M351 467C351 447 368 430 388 430H636C656 430 673 447 673 467C673 489 654 516 627 538C592 567 552 581 512 581C472 581 432 567 397 538C370 516 351 489 351 467Z" fill="url(#bowlInner)"/>
    <path d="M324 603H700C696 642 661 677 619 691L575 705C534 718 490 718 449 705L405 691C363 677 328 642 324 603Z" fill="url(#bowlOuter)"/>
    <rect x="471" y="647" width="82" height="85" rx="24" fill="url(#bowlOuter)"/>
    <ellipse cx="512" cy="731" rx="126" ry="26" fill="#D4D4D4"/>
    <path d="M317 492C360 530 425 553 512 553C599 553 664 530 707 492" stroke="#E9E9E9" stroke-width="18" stroke-linecap="round"/>
    <path d="M447 706C490 718 534 718 577 706" stroke="#CFCFCF" stroke-width="12" stroke-linecap="round"/>
  </g>
</svg>
